<?xml version="1.0" standalone="no"?>
<!DOCTYPE svg PUBLIC "-//W3C//DTD SVG 20010904//EN"
 "http://www.w3.org/TR/2001/REC-SVG-20010904/DTD/svg10.dtd">
<svg version="1.0" xmlns="http://www.w3.org/2000/svg"
 width="920.000000pt" height="846.000000pt" viewBox="0 0 920.000000 846.000000"
 preserveAspectRatio="xMidYMid meet">

<g transform="translate(0.000000,846.000000) scale(0.100000,-0.100000)"
fill="#4F8FF0" stroke="none">
<path d="M4395 8274 c-16 -2 -79 -9 -140 -15 -60 -5 -175 -21 -255 -35 -1378
-238 -2524 -1142 -3070 -2423 -93 -218 -203 -572 -225 -721 -4 -25 -11 -58
-15 -75 -60 -203 -95 -731 -71 -1060 53 -699 272 -1346 658 -1940 248 -382
636 -787 1018 -1062 325 -234 714 -434 1075 -553 312 -103 607 -165 930 -196
235 -23 675 -15 890 15 604 85 1127 274 1628 587 643 401 1168 987 1498 1669
209 433 313 787 381 1295 25 186 25 733 0 925 -69 542 -213 999 -455 1450
-197 367 -415 659 -717 960 -769 768 -1801 1191 -2885 1183 -118 0 -228 -3
-245 -4z m725 -198 c258 -32 582 -106 820 -186 381 -129 805 -362 1131 -623
181 -144 459 -412 536 -515 15 -20 51 -64 78 -97 179 -215 408 -591 524 -863
170 -398 246 -675 306 -1112 25 -180 31 -629 11 -820 -55 -518 -183 -954 -415
-1405 -288 -562 -677 -1014 -1183 -1376 -543 -389 -1157 -621 -1863 -705 -181
-22 -602 -25 -770 -6 -772 88 -1418 343 -1995 791 -596 462 -1058 1102 -1297
1796 -232 676 -272 1394 -116 2100 99 452 235 793 470 1189 456 764 1197 1358
2053 1648 261 89 597 162 855 187 61 6 126 13 145 15 80 9 602 -4 710 -18z"/>
<path d="M3985 6609 c-357 -159 -713 -318 -790 -353 -77 -34 -206 -92 -287
-127 -82 -35 -146 -68 -145 -74 2 -5 89 -47 193 -93 104 -45 248 -109 319
-141 72 -33 175 -80 231 -105 56 -25 104 -46 108 -46 3 0 6 59 6 130 0 87 5
141 13 163 19 44 89 104 155 134 249 110 850 151 1348 92 308 -36 499 -106
552 -203 13 -23 18 -66 22 -171 5 -133 6 -140 25 -137 22 4 160 64 465 202
107 48 234 105 283 125 48 21 90 42 93 47 6 10 -37 30 -431 203 -154 67 -365
161 -470 208 -580 261 -989 437 -1013 436 -15 -1 -319 -131 -677 -290z"/>
<path d="M4269 6065 c-215 -23 -420 -77 -484 -129 l-30 -24 -3 -229 c-2 -125
-1 -242 3 -259 l5 -32 54 29 c74 40 254 85 426 106 223 26 663 24 875 -5 184
-25 322 -59 397 -99 29 -15 56 -29 61 -31 4 -2 7 113 7 256 l0 261 -36 30
c-67 54 -281 107 -539 131 -149 14 -581 11 -736 -5z"/>
<path d="M6088 5764 c-27 -14 -38 -47 -20 -58 5 -3 26 13 47 34 32 33 36 40
20 40 -11 -1 -32 -8 -47 -16z"/>
<path d="M6101 5714 c-30 -35 -41 -55 -41 -80 0 -18 4 -35 9 -38 5 -3 30 17
55 44 39 42 47 56 44 82 -2 17 -8 33 -14 35 -6 2 -30 -17 -53 -43z"/>
<path d="M6106 5600 c-33 -36 -46 -57 -46 -79 0 -53 14 -50 73 17 36 41 50 93
28 106 -5 3 -29 -17 -55 -44z"/>
<path d="M6106 5489 c-35 -39 -46 -59 -46 -84 0 -48 12 -49 52 -7 43 45 58 72
58 106 0 42 -16 38 -64 -15z"/>
<path d="M6119 5393 c-44 -45 -59 -73 -59 -107 0 -41 15 -38 59 9 44 48 58 85
45 116 -9 18 -12 17 -45 -18z"/>
<path d="M5077 5390 c4 -4 39 -15 77 -25 82 -21 186 -72 236 -114 l35 -29 -2
-90 c-10 -396 -265 -973 -522 -1179 -109 -87 -225 -114 -332 -78 -64 22 -169
104 -233 181 -228 276 -389 680 -422 1056 l-7 77 78 83 c42 45 72 84 66 86
-18 6 -152 -37 -200 -65 l-43 -25 6 -112 c17 -275 85 -519 224 -806 194 -400
455 -621 683 -581 107 18 202 72 300 170 266 267 480 776 506 1204 5 96 4 109
-13 128 -42 47 -139 79 -332 109 -62 9 -110 14 -105 10z"/>
<path d="M6106 5269 c-30 -31 -40 -50 -44 -84 -3 -27 -1 -45 5 -45 6 0 31 23
57 50 39 42 47 56 44 82 -2 17 -7 33 -13 34 -5 2 -27 -15 -49 -37z"/>
<path d="M6106 5150 c-37 -39 -46 -56 -46 -85 0 -19 4 -35 9 -35 4 0 29 22 55
50 33 36 46 57 46 79 0 16 -4 32 -9 35 -5 3 -29 -17 -55 -44z"/>
<path d="M6107 5041 c-37 -39 -47 -58 -47 -84 0 -18 3 -36 6 -40 12 -12 93 84
100 119 11 58 -8 60 -59 5z"/>
<path d="M6106 4930 c-36 -39 -46 -56 -46 -84 0 -19 4 -37 8 -40 10 -6 74 59
91 91 13 26 15 70 2 77 -5 3 -29 -17 -55 -44z"/>
<path d="M6101 4814 c-31 -35 -41 -55 -41 -80 0 -46 19 -44 64 6 37 41 52 79
42 105 -9 24 -22 18 -65 -31z"/>
<path d="M6132 4734 c-31 -21 -27 -34 8 -34 23 0 30 5 30 19 0 28 -13 33 -38
15z"/>
<path d="M6068 4634 c-56 -30 -65 -95 -20 -144 71 -81 199 10 148 105 -28 52
-77 67 -128 39z"/>
<path d="M6066 4303 c-4 -54 -13 -146 -19 -205 -7 -60 -9 -108 -5 -108 4 0 8
-20 8 -45 0 -69 20 -53 22 18 l2 62 6 -75 6 -75 4 80 4 80 5 -80 6 -80 33 -3
c17 -2 32 0 32 5 0 4 -7 62 -15 128 -8 66 -14 143 -14 170 1 29 7 1 14 -70 20
-178 27 -231 32 -219 2 6 15 9 28 6 14 -2 25 -2 25 0 0 3 -9 48 -20 101 -16
77 -60 367 -60 400 0 4 -20 7 -44 7 l-43 0 -7 -97z m124 -216 c7 -48 10 -90 7
-93 -5 -6 -24 121 -32 211 -4 55 -4 56 4 15 5 -25 14 -85 21 -133z m17 -129
c-3 -8 -6 -5 -6 6 -1 11 2 17 5 13 3 -3 4 -12 1 -19z"/>
<path d="M4831 3500 c-19 -30 -50 -61 -77 -76 -37 -22 -43 -29 -32 -39 45 -39
220 -166 224 -162 14 14 24 92 24 194 0 123 5 115 -71 127 -34 6 -37 4 -68
-44z m119 13 c8 -7 2 -217 -7 -241 -8 -22 -11 -21 -100 45 -51 38 -92 71 -93
74 0 4 16 17 34 30 19 13 47 43 62 67 26 40 29 42 63 36 20 -4 38 -9 41 -11z"/>
<path d="M4372 3528 c-16 -16 -15 -184 1 -260 l12 -57 120 92 121 92 -46 30
c-24 17 -57 49 -73 73 -27 40 -31 42 -76 42 -26 0 -52 -5 -59 -12z m112 -37
c14 -21 42 -52 62 -70 23 -19 34 -34 29 -39 -6 -5 -47 -37 -93 -71 -99 -74
-97 -76 -97 88 0 114 0 115 25 122 43 12 49 10 74 -30z"/>
<path d="M4165 3500 c-209 -43 -543 -146 -687 -213 -194 -89 -380 -250 -469
-404 -62 -107 -132 -262 -245 -544 -62 -158 -69 -217 -32 -264 38 -49 290
-158 660 -286 405 -140 745 -214 1086 -235 l112 -7 0 464 c1 368 4 472 15 503
13 38 13 39 -32 109 -61 96 -164 293 -208 402 -60 143 -85 260 -85 386 0 81
-3 109 -12 108 -7 0 -53 -9 -103 -19z"/>
<path d="M5055 3418 c-1 -227 -85 -451 -304 -808 l-76 -125 0 -465 0 -465 80
-3 c151 -6 490 41 741 103 313 77 932 301 1072 387 46 28 66 71 59 127 -6 48
-178 473 -249 615 -174 349 -411 506 -1008 667 -80 22 -174 44 -210 50 -36 5
-74 12 -85 15 -19 5 -20 0 -20 -98z"/>
<path d="M4602 3262 l-63 -47 26 -23 26 -22 -21 -105 -21 -106 54 -101 c30
-56 58 -103 63 -105 5 -2 33 44 63 100 l55 103 -22 108 -21 107 25 22 25 22
-53 41 c-29 22 -58 43 -63 46 -6 4 -38 -15 -73 -40z"/>
</g>
</svg>
